<?xml version="1.0" encoding="UTF-8"?>
<!-- Generator: Adobe Illustrator 24.1.2, SVG Export Plug-In . SVG Version: 6.00 Build 0)  -->
<svg version="1.1" id="Layer_1" xmlns="http://www.w3.org/2000/svg" xmlns:xlink="http://www.w3.org/1999/xlink" x="0px" y="0px" viewBox="0 0 200 200" style="enable-background:new 0 0 200 200;" xml:space="preserve">
<style type="text/css">
	.st0{fill:url(#SVGID_1_);}
	.st1{fill:#FFFFFF;}
</style>
<linearGradient id="SVGID_1_" gradientUnits="userSpaceOnUse" x1="100" y1="-1.000444e-11" x2="100" y2="200">
	<stop offset="0" style="stop-color:#4400FF"/>
	<stop offset="0.1611" style="stop-color:#4301FB"/>
	<stop offset="0.3279" style="stop-color:#4104EE"/>
	<stop offset="0.4976" style="stop-color:#3E08DA"/>
	<stop offset="0.6691" style="stop-color:#390FBD"/>
	<stop offset="0.8403" style="stop-color:#331898"/>
	<stop offset="1" style="stop-color:#2C216E"/>
</linearGradient>
<rect class="st0" width="200" height="200"/>
<g>
	<path class="st1" d="M32.1,120.6c0.5-0.3,0.9-0.6,1.4-0.9c1.2-0.6,2.4-1.3,3.6-1.8c0.5-0.2,1.1-0.6,1.7-0.5   c0.6-0.4,1.4-0.3,2.1-0.5c1.3-0.4,2.7-0.4,4.1-0.2c1.3,0.2,2.7,0.6,3.8,1.3c1,0.7,1.7,1.5,2.3,2.6c0,0.1,0.1,0.2,0.2,0.3   c0.2-0.1,0.4-0.1,0.5-0.2c1.3-0.9,2.6-1.6,4-2.3c0.5-0.2,1-0.4,1.5-0.6c0.7-0.2,1.3-0.4,2-0.7c0,0,0,0,0.1,0c1.1,0,2.2-0.5,3.3-0.5   c0.6,0,1.2,0,1.8,0c0.5,0,1,0.2,1.5,0.3c0.1,0,0.3,0.1,0.4,0.1c1.1,0.1,2,0.7,2.9,1.3c0.7,0.5,1.2,1.1,1.7,1.8   c0.4,0.6,0.8,1.3,0.9,2.2c0,0.1,0,0.2,0.1,0.3c0.3,0.6,0.3,1.2,0.3,1.9c0.2,7.5,0.1,14.9,0.1,22.4c0,0.4,0,0.8-0.1,1.1   c0,0.3-0.2,0.5-0.5,0.6c-0.3,0.1-0.7,0.2-1,0.2c-1,0-1.9,0-2.9,0c-0.2,0-0.5,0-0.7-0.1c-0.7-0.2-0.8-0.4-0.8-1.2   c0-6.9,0-13.9,0-20.8c0-0.4-0.1-0.9-0.2-1.3c0-0.2-0.1-0.3-0.1-0.5c-0.1-0.7-0.4-1.3-0.9-1.8c-0.5-0.5-1-1-1.7-1.3   c-0.1,0-0.2-0.1-0.3-0.1c-0.8,0-1.5,0-2.3-0.1c-0.5,0-1,0-1.5,0c-0.1,0-0.2,0-0.3,0c-0.8,0.2-1.7,0.4-2.5,0.7   c-0.4,0.1-0.9,0.3-1.3,0.5c-0.9,0.4-1.8,0.9-2.7,1.3c-0.2,0.1-0.3,0.3-0.3,0.5c0,7.7,0,15.3,0,23c0,0.7-0.2,0.9-0.8,1.1   c-0.3,0.1-0.6,0.2-0.9,0.2c-0.9,0-1.8,0-2.7,0c-0.1,0-0.3,0-0.4,0c-0.8-0.1-1-0.4-1.1-1.2c0-1,0-2,0-3c0-5.5,0-11.1,0-16.6   c0-0.7-0.1-1.4-0.2-2.1c0-0.1-0.1-0.3-0.1-0.4c-0.1-1.3-0.7-2.3-1.6-3.1c-0.6-0.5-1.2-0.8-2-0.8c-1.2-0.1-2.3,0.1-3.5,0   c-0.1,0-0.1,0-0.2,0c-0.8,0.2-1.6,0.4-2.4,0.7c-0.4,0.1-0.8,0.3-1.2,0.4c-0.8,0.2-1.5,0.7-2.2,1.1c-0.5,0.2-0.7,0.6-0.7,1.2   c0,6.8,0,13.6,0,20.4c0,0.6,0,1.2,0,1.8c0,1-0.5,1.6-1.5,1.6c-1,0-2,0-3,0c-0.5,0-0.9-0.2-1.2-0.5c-0.3-0.3-0.3-0.6-0.3-1   c0-3.9,0-7.8,0-11.6c0-5.5,0-11.1,0-16.6c0-0.7,0.2-1.2,0.8-1.4c0.2-0.1,0.4-0.1,0.6-0.1c0.8,0,1.6,0,2.4,0c0.8,0,1.5,0.7,1.5,1.5   C31.6,119.5,31.8,120,32.1,120.6z"/>
	<path class="st1" d="M56.7,55.3c0.1-0.2,0.3-0.4,0.4-0.7c0.3-0.8,0.9-1.5,1.5-2c0.4-0.3,0.8-0.7,1.3-0.9c0.7-0.3,1.3-0.6,2.1-0.6   c0.7,0.1,1.4,0,2.1,0c0.3,0,0.5,0.1,0.8,0.2c1,0.3,1.8,1,2.5,1.8c0.6,0.6,1.1,1.3,1.3,2.1c0.4,0,0.5-0.2,0.6-0.5   c0.8-1.6,2-2.6,3.6-3.3c0.8-0.4,1.7-0.3,2.5-0.3c0.2,0,0.4,0,0.5,0c0.5,0,1,0.1,1.6,0.3c0.7,0.2,1.2,0.5,1.8,0.9   c0.7,0.4,1.3,1.1,1.6,1.8c0.6,1.2,0.9,2.5,0.9,3.9c0,5.9,0,11.8,0,17.6c0,0.7-0.4,1.2-1.2,1.2c-1.4,0-2.7,0-4.1,0c-0.7,0-1-0.4-1-1   c0-3.8,0-7.6,0-11.4c0-1.4,0-2.8,0-4.2c0-0.8-0.2-1.5-0.6-2.2c-0.3-0.6-0.9-1.1-1.7-1.1c-0.2,0-0.5,0-0.7,0   c-0.7-0.1-1.3,0.2-1.8,0.6c-0.3,0.2-0.5,0.5-0.7,0.8c-0.4,0.7-0.7,1.5-0.7,2.4c0,5,0,10,0,15c0,0.6-0.5,1.1-1.1,1.1   c-1.4,0-2.8,0-4.2,0c-0.7,0-1-0.4-1-1.1c0-4.9,0-9.7,0-14.6c0-1-0.2-1.9-0.5-2.7c-0.2-0.7-0.8-1.2-1.4-1.4   c-0.4-0.2-0.9-0.1-1.3-0.1c-0.6,0-1.3,0.1-1.8,0.6c-0.5,0.5-0.7,1-0.9,1.6c-0.3,0.8-0.3,1.7-0.3,2.5c0,4.7,0,9.3,0,14   c0,0.9-0.4,1.3-1.3,1.3c-1.3,0-2.6,0-3.9,0c-0.7,0-1.1-0.3-1.1-1.1c0-4,0-7.9,0-11.9c0-3.8,0-7.6,0-11.4c0-0.7,0.3-0.9,0.9-0.9   c1.3,0,2.6,0,3.9,0c0.7,0,0.9,0.2,0.9,0.9c0,0.8,0,1.5,0,2.3C56.5,54.9,56.4,55.1,56.7,55.3z"/>
	<path class="st1" d="M107.1,132.9c0,3.6,0,7.2,0,10.8c0,1.2,0,2.3,0,3.5c0,0.4-0.1,0.8-0.5,1.1c-0.2,0.1-0.5,0.3-0.8,0.3   c-0.9,0-1.7,0-2.6,0c-0.6,0-1.1-0.4-1.3-1c-0.2-0.6-0.4-1.2-0.4-1.9c0-0.4-0.3-0.5-0.6-0.3c-0.9,0.6-1.8,1.2-2.8,1.7   c-0.8,0.4-1.6,0.7-2.4,1.1c-0.6,0.3-1.3,0.5-1.9,0.7c-0.1,0-0.3,0.1-0.4,0.1c-0.5,0.1-1,0.2-1.6,0.3c-0.1,0-0.2,0.1-0.2,0.1   c-1.5,0-2.9,0-4.4,0c-0.3,0-0.6-0.3-0.9-0.3c-1.4-0.1-2.5-1-3.6-1.7c-0.1-0.1-0.2-0.2-0.3-0.3c-0.6-0.8-1.2-1.7-1.6-2.7   c-0.5-1.5-0.8-3-0.8-4.5c0-7,0-14,0-21c0-1.1,0.5-1.3,1.3-1.3c1.2,0,2.5,0,3.7,0c0.9,0,1.2,0.4,1.2,1.3c0,1.6,0,3.1,0,4.7   c0,5.4,0,10.8,0,16.2c0,0.4,0.1,0.8,0.2,1.2c0.2,0.5,0.2,1.1,0.6,1.6c0.5,0.7,1,1.3,1.8,1.7c0.9,0.4,1.9,0.4,2.8,0.6   c0.2,0,0.4,0,0.6-0.1c0.6-0.1,1.2-0.1,1.8-0.2c0.2,0,0.5,0,0.6-0.1c0.4-0.2,0.9-0.3,1.4-0.3c0.4,0,0.8-0.2,1.2-0.4   c0.9-0.4,1.8-0.9,2.7-1.4c1.3-0.7,1.1-0.8,1.1-1.9c0-6.6,0-13.2,0-19.8c0-0.8,0-1.6,0-2.4c0-0.6,0.1-0.6,0.7-0.7   c0.4-0.1,0.8-0.1,1.2-0.1c0.9,0,1.8,0,2.7,0c1.4,0.1,1.4,0.1,1.4,1.4c0.1,1.3,0,2.6,0,3.9c0,2.4,0,4.9,0,7.3   C107.1,130.9,107.1,131.9,107.1,132.9C107.1,132.9,107.1,132.9,107.1,132.9z"/>
	<path class="st1" d="M45.2,63.5c0,1.3,0,2.7,0,4c0,0.8,0.1,1.5,0.1,2.3c0,0.2,0.1,0.4,0.2,0.6c0.3,0.7,0.6,1.3,1.2,1.9   c0.2,0.2,0.3,0.5,0.3,0.8c0,0.3-0.1,0.6-0.3,0.8c-1,0.9-2,1.8-3.1,2.7c-0.5,0.5-1.2,0.4-1.8,0c-0.7-0.6-1.4-1.4-1.9-2.2   c-0.3-0.5-0.4-0.5-0.9-0.1c-0.8,0.7-1.5,1.6-2.6,2c-0.7,0.3-1.4,0.8-2.2,0.7c-0.2,0-0.4,0-0.6,0.1c-1,0.3-2,0.3-3.1,0   c-0.1,0-0.2-0.1-0.3-0.1c-1.5-0.1-2.7-0.9-3.7-2.1c-0.5-0.6-0.8-1.3-1.1-1.9c-0.1-1.3-0.7-2.5-0.4-3.8c0.1-0.6,0.2-1.2,0.4-1.8   c0.3-0.7,0.6-1.4,1-2c0.7-0.9,1.5-1.8,2.6-2.3c0.5-0.2,1-0.4,1.5-0.6c0.2-0.1,0.4-0.2,0.5-0.2c0.1,0,0.2-0.1,0.3-0.1   c0.6,0,1-0.2,1.6-0.4c0.1,0,0.2-0.1,0.3-0.1c1.5-0.1,3-0.5,4.6-0.5c0.7,0,0.7-0.1,0.7-0.8c0-0.5,0-1,0-1.4c0.1-0.8-0.1-1.4-0.6-2   c-0.5-0.6-1.1-1.1-1.9-1.1c-0.6,0-1.3-0.1-1.9,0.1c-1,0.2-1.8,0.7-2.3,1.7c-0.2,0.4-0.3,0.8-0.5,1.3c-0.1,0.3-0.4,0.5-0.8,0.5   c-1.4-0.1-2.9-0.1-4.2-0.5c-0.7-0.2-0.9-0.5-0.6-1.2c0.2-0.4,0.3-0.7,0.4-1.2c0-0.2,0.2-0.4,0.3-0.6c0.5-1.1,1.3-2,2.2-2.7   c0.5-0.4,1.1-0.7,1.7-1c0.6-0.3,1.2-0.5,1.8-0.7c0.1,0,0.2-0.1,0.3-0.1c0.9-0.1,1.8-0.3,2.8-0.4c0.9-0.1,1.8,0,2.7,0.2   c0.1,0,0.3,0.1,0.4,0.1c1.2,0,2.2,0.5,3.2,1c1.3,0.7,2.3,1.7,2.8,3.1c0.5,1.3,0.6,2.7,0.6,4.1C45.2,60.7,45.2,62.1,45.2,63.5z    M38.7,66.5c0-0.6,0-1.2,0-1.7c0-0.3-0.1-0.5-0.4-0.5c-0.6,0-1.2,0.1-1.8,0.2c-0.5,0.1-0.9,0.2-1.4,0.3c-0.5,0.2-1.1,0.4-1.5,0.7   c-0.8,0.6-1.4,1.3-1.7,2.3c-0.5,1.4-0.1,2.6,0.6,3.8c0.5,0.7,1.9,1.3,2.6,1c0.3-0.1,0.5-0.2,0.8-0.3c0.5-0.3,1.1-0.5,1.4-1   c0.8-1.2,1.5-2.4,1.4-4C38.7,67.1,38.7,66.8,38.7,66.5z"/>
	<path class="st1" d="M105.9,63.1c0,1.6,0,3.1,0,4.7c0,1.6,0.4,3,1.5,4.3c0.1,0.2,0.2,0.3,0.3,0.5c0.2,0.5,0.2,0.9-0.2,1.3   c-1,0.9-1.9,1.7-2.9,2.6c-0.3,0.3-0.7,0.6-1.2,0.5c-0.2,0-0.4-0.1-0.5-0.2c-0.6-0.6-1.2-1.2-1.8-1.9c-0.2-0.2-0.3-0.4-0.4-0.6   c-0.2-0.4-0.4-0.4-0.8-0.1c-0.2,0.2-0.4,0.4-0.5,0.6c-0.8,0.8-1.8,1.3-2.8,1.8c-0.5,0.2-1.1,0.3-1.6,0.4c-1.4,0.3-2.6,0.2-4,0   c-1-0.2-1.8-0.6-2.6-1.1c-0.8-0.5-1.3-1.3-1.7-2.2c-0.7-1.5-0.8-3-0.7-4.6c0-0.2,0.1-0.4,0.2-0.6c0.1-0.2,0.2-0.4,0.2-0.6   c0.2-1,0.6-1.9,1.3-2.6c0.7-0.8,1.4-1.5,2.3-2c0.5-0.3,1-0.6,1.6-0.7c0.2,0,0.3-0.1,0.5-0.2c0.1,0,0.2-0.1,0.3-0.1   c0.9,0,1.8-0.6,2.7-0.5c1.2-0.3,2.5-0.4,3.8-0.4c0.7,0,0.8-0.2,0.8-0.9c0-0.4,0-0.8,0-1.3c0.1-0.7-0.1-1.3-0.5-1.9   c-0.5-0.8-1.2-1.3-2.1-1.3c-0.6,0-1.2,0-1.7,0.1c-0.5,0.1-0.9,0.3-1.3,0.6c-0.7,0.5-1.2,1.2-1.5,2.1c-0.1,0.6-0.4,0.8-1,0.7   c-1.4-0.1-2.9-0.2-4.2-0.5c-0.5-0.1-0.5-0.1-0.5-0.7c0-0.3,0-0.6,0.2-0.9c0.1-0.1,0.1-0.2,0.1-0.3c0.5-2,1.9-3.3,3.5-4.4   c0.6-0.4,1.3-0.7,2-0.9c0.2,0,0.3-0.1,0.5-0.2c0.2-0.1,0.4-0.1,0.6-0.2c0.5-0.1,1.1-0.2,1.6-0.3c1.3-0.2,2.5-0.2,3.7,0.1   c0.1,0,0.3,0.1,0.4,0.1c1.2-0.1,2.2,0.5,3.2,1c1.3,0.7,2.3,1.8,2.9,3.3c0.4,1.2,0.4,2.3,0.4,3.5C106,60.3,105.9,61.7,105.9,63.1z    M99.6,66.4c0-0.5,0-1.1,0-1.6c0-0.4-0.1-0.5-0.5-0.5c-0.6,0-1.2,0-1.8,0.2c-0.7,0.2-1.5,0.2-2.2,0.6c-0.5,0.3-1,0.5-1.4,0.9   c-0.9,0.9-1.3,2-1.2,3.2c0.1,1.4,0.5,2.6,2,3.2c0.5,0.2,0.9,0.2,1.3,0.1c1.3-0.3,2.3-1.1,2.9-2.4c0.2-0.5,0.3-1,0.5-1.4   c0.2-0.4,0.2-0.8,0.2-1.3C99.6,67.2,99.6,66.8,99.6,66.4z"/>
	<path class="st1" d="M161.7,55.7c0.4-0.2,0.6-0.4,0.7-0.7c0.4-1.1,1-2,1.9-2.7c0.4-0.4,1-0.6,1.5-0.9c0.7-0.4,1.5-0.3,2.3-0.4   c0.5,0,1,0,1.5,0c0.1,0,0.2,0,0.2,0c1.2,0.4,2.3,0.9,3.2,1.8c0.7,0.8,1.1,1.8,1.5,2.7c0,0.1,0,0.2,0,0.2c0.1,1,0.2,2,0.4,3   c0,0.3,0.1,0.6,0.1,0.8c0,4,0,8,0,12c0,1.3,0,2.5,0,3.8c0,0.5-0.3,0.9-0.6,1.2c-0.1,0.1-0.3,0.1-0.4,0.1c-1.5,0-2.9,0-4.4,0   c-0.6,0-0.9-0.3-0.9-1c0-2.1,0-4.3,0-6.4c0-2.7,0-5.5,0-8.2c0-0.9-0.2-1.8-0.5-2.6c-0.2-0.7-0.8-1.1-1.3-1.6c0,0-0.1-0.1-0.1-0.1   c-0.8-0.1-1.6-0.3-2.4,0.1c-0.7,0.4-1.3,1-1.6,1.8c-0.6,1.4-0.8,2.9-0.8,4.4c0,4.1,0,8.3,0,12.4c0,0.1,0,0.2,0,0.4   c0,0.5-0.4,0.9-0.9,0.9c-1.5,0-2.9,0-4.4,0c-0.5,0-1-0.5-1-1.1c0-0.5,0-1.1,0-1.6c0-5.4,0-10.8,0-16.2c0-1.8,0-3.5,0-5.3   c0-0.7,0.4-1.1,1.1-1.1c1.3,0,2.5,0,3.8,0c0.7,0,1,0.2,1,0.9c0,0.9,0,1.8-0.1,2.7C161.7,55.2,161.7,55.4,161.7,55.7z"/>
	<path class="st1" d="M152.3,64.1c0,1.1-0.1,2.1-0.1,3.1c0,0.2-0.1,0.4-0.2,0.6c-0.1,0.2-0.2,0.4-0.2,0.6c0.1,0.8-0.3,1.4-0.6,2   c-0.3,0.9-0.8,1.7-1.3,2.5c-0.9,1.3-1.9,2.5-3.4,3.2c-0.4,0.2-0.9,0.5-1.3,0.7c0,0-0.1,0-0.1,0c-1,0-1.8,0.6-2.8,0.5   c-0.5-0.1-1,0-1.4,0c-0.5,0-1,0-1.4-0.3c-0.1,0-0.1-0.1-0.2-0.1c-1,0-1.7-0.6-2.5-1c-0.2-0.1-0.5-0.3-0.7-0.5   c-0.6-0.6-1.3-1.2-1.8-1.9c-0.4-0.5-0.8-1.1-1.1-1.8c-0.4-0.9-0.8-1.9-1.1-2.9c0,0,0,0,0-0.1c-0.2-1-0.4-1.9-0.5-2.9   c-0.1-1.3,0-2.6,0-3.9c0-0.3,0.1-0.7,0.2-1c0.1-0.3,0.1-0.6,0.2-0.9c0.1-0.3,0.1-0.7,0.2-1c0.2-0.6,0.4-1.2,0.6-1.7   c0.1-0.4,0.3-0.7,0.5-1c1-1.7,2.3-3.2,4-4.2c0.5-0.3,1-0.4,1.5-0.6c0.1,0,0.1,0,0.2,0c0.9-0.5,1.9-0.3,2.9-0.4c0.6,0,1.2,0,1.7,0   c0.1,0,0.2,0,0.3,0c0.7,0.2,1.3,0.5,2,0.7c0.7,0.2,1.3,0.7,2,1.1c0.7,0.4,1.3,1,1.7,1.7c0.4,0.6,0.7,1.1,1.1,1.7   c0.4,0.6,0.6,1.4,0.9,2.1c0.3,0.6,0.3,1.3,0.5,1.9c0.3,0.7,0.3,1.4,0.3,2.2C152.2,63,152.2,63.6,152.3,64.1z M145.6,64.3   C145.6,64.3,145.6,64.3,145.6,64.3c0-1.1,0-2.2,0-3.3c0-0.4-0.1-0.8-0.2-1.2c-0.1-0.3-0.2-0.6-0.2-0.9c-0.1-0.7-0.4-1.4-0.8-2   c-0.2-0.4-0.6-0.7-1.1-0.8c-0.1,0-0.2-0.1-0.3-0.2c-0.6-0.3-1.3-0.4-2-0.1c-1.5,0.6-2.2,1.8-2.5,3.3c-0.1,0.4-0.1,0.7-0.2,1.1   c-0.1,0.5-0.2,0.9-0.2,1.4c0,1.4,0,2.8,0,4.2c0,0.6,0.2,1.3,0.3,1.9c0.1,0.7,0.2,1.5,0.5,2.2c0.2,0.7,0.5,1.3,1,1.8   c0.9,1,2.6,1,3.6,0.3c0.9-0.7,1.4-1.7,1.7-2.8c0-0.2,0-0.3,0.1-0.5c0.3-0.5,0.3-1,0.3-1.6C145.6,66.2,145.6,65.2,145.6,64.3z"/>
	<path class="st1" d="M122.5,149.3c-0.5,0-0.9,0-1.4,0c-0.7,0-1.4,0-2.1-0.3c-0.1,0-0.2-0.1-0.2-0.1c-1,0-1.9-0.3-2.8-0.5   c-0.2,0-0.4-0.1-0.6-0.2c-0.2-0.1-0.5-0.1-0.7-0.2c-0.7-0.3-1.6-0.5-2.1-1.2c-0.1-0.2-0.2-0.4-0.2-0.6c0-0.7,0-1.5,0-2.2   c0-0.8,0.6-1.1,1.2-0.8c0.4,0.1,0.7,0.2,1.1,0.3c0.7,0.2,1.5,0.4,2.2,0.6c0.2,0,0.3,0.1,0.5,0.1c0.7,0.1,1.5,0.3,2.2,0.4   c0.3,0,0.6,0.1,0.9,0.1c1.2,0,2.4,0,3.6,0c0.3,0,0.7-0.1,1-0.2c0.6-0.2,1.2-0.3,1.7-0.6c0.8-0.5,1.4-1.1,1.7-2   c0.2-0.5,0.3-0.9,0.4-1.5c0.1-1.6-0.7-2.6-2-3.4c-1-0.6-2.1-1.1-3.2-1.4c-0.5-0.2-1-0.4-1.4-0.6c-0.5-0.2-1.1-0.4-1.6-0.6   c-1.4-0.5-2.7-1-3.9-1.8c-1.2-0.8-2.2-1.7-2.9-2.9c-0.3-0.5-0.7-1-0.6-1.6c0-0.1,0-0.2-0.1-0.2c-0.4-0.6-0.4-1.2-0.3-1.9   c0-0.5,0-1,0-1.5c0-0.4,0-0.9,0.3-1.2c0-0.1,0.1-0.1,0.1-0.2c0.1-0.9,0.6-1.6,1.1-2.3c0.7-1,1.6-1.7,2.6-2.4   c0.9-0.5,1.8-0.9,2.8-1.2c0.8-0.3,1.7-0.4,2.6-0.5c1.1-0.1,2.3,0,3.4,0c0.3,0,0.5,0.1,0.8,0.2c0.5,0.1,1,0.2,1.5,0.2   c0.1,0,0.2,0,0.2,0c0.7,0.2,1.5,0.4,2.2,0.6c0.5,0.2,1,0.4,1.6,0.6c0.5,0.2,0.8,0.6,0.8,1.2c0,0.7,0,1.5,0,2.2   c0,0.5-0.2,0.7-0.7,0.8c-0.4,0-0.9,0-1.3-0.2c-0.2-0.1-0.4-0.1-0.6-0.2c-0.4-0.1-0.8-0.2-1.1-0.3c-0.2,0-0.3-0.1-0.5-0.1   c-0.7,0-1.4-0.1-2.1-0.3c-1.2-0.3-2.5-0.2-3.7-0.1c-0.3,0-0.6,0.2-1,0.3c-0.2,0.1-0.5,0.1-0.7,0.2c-0.3,0.1-0.6,0.2-0.9,0.4   c-1,0.4-1.4,1.3-1.9,2.1c-0.1,0.1-0.1,0.3-0.1,0.5c0,0.4,0,0.8,0,1.1c0,0.7,0.3,1.3,0.7,1.8c0.9,1,1.9,1.5,3.1,2   c0.9,0.3,1.8,0.7,2.7,1.1c0.4,0.1,0.7,0.3,1.1,0.4c0.6,0.2,1.1,0.4,1.7,0.6c0.3,0.1,0.6,0.3,1,0.4c1.2,0.6,2.5,1.2,3.5,2.1   c0.8,0.7,1.6,1.6,1.9,2.6c0.3,0.9,0.7,1.7,0.5,2.7c-0.1,0.4,0,0.9,0,1.4c0,0.5-0.1,1-0.3,1.5c-0.2,0.5-0.2,1-0.5,1.5   c-0.4,0.7-0.8,1.4-1.3,2c-0.8,0.9-1.8,1.6-2.8,2.2c-0.5,0.3-1,0.4-1.5,0.6c-0.6,0.2-1.2,0.5-1.8,0.4c0,0-0.1,0-0.1,0   c-1,0.5-2.1,0.3-3.2,0.4C122.8,149.3,122.6,149.3,122.5,149.3C122.5,149.3,122.5,149.3,122.5,149.3z"/>
	<path class="st1" d="M90.8,95.4c-1.3,0.1-2.7,0.2-4,0.3c-1.4,0.1-2.9,0-4.3-0.1c-0.8-0.1-1.6-0.1-2.4-0.1c-0.5,0-1.1-0.1-1.6-0.2   c-0.6-0.1-1.3-0.2-1.9-0.2c-0.1,0-0.2,0-0.2,0c-1-0.2-2.1-0.5-3.1-0.7c-0.1,0-0.2-0.1-0.3-0.1c-0.7,0-1.4-0.2-2.1-0.4   c-0.4-0.1-0.8-0.2-1.2-0.3c-0.2,0-0.3,0-0.5-0.1c-0.3-0.1-0.5-0.1-0.8-0.2c-0.1,0-0.3-0.1-0.4-0.1c-1.2-0.3-2.3-0.7-3.5-1.2   c-0.8-0.4-1.7-0.6-2.5-1c-0.3-0.1-0.7-0.3-1-0.5c-1.3-0.6-2.6-1.3-3.8-2c-1.2-0.6-2.3-1.4-3.4-2.1c-1.1-0.7-2.2-1.5-3.3-2.2   c-0.2-0.1-0.3-0.2-0.5-0.3c-1.2-1-2.4-2.1-3.6-3.1c-0.4-0.3-0.5-0.6-0.3-0.8c0.2-0.3,0.6-0.3,0.9-0.2c0.4,0.2,0.8,0.3,1.2,0.6   c1.1,0.6,2.3,1.2,3.4,1.8c0.7,0.3,1.4,0.6,2.1,0.9c0.8,0.4,1.6,0.8,2.5,1.1c0.4,0.2,0.8,0.3,1.2,0.4c0.6,0.2,1.1,0.4,1.7,0.6   c0.5,0.2,1,0.4,1.5,0.7c0.1,0,0.1,0.1,0.2,0.1c0.6,0.2,1.1,0.3,1.7,0.4c0.2,0.1,0.4,0.2,0.6,0.2c0.2,0.1,0.5,0.1,0.7,0.2   c0.1,0,0.2,0,0.2,0c0.6,0.2,1.2,0.4,1.8,0.7c0.1,0,0.1,0.1,0.2,0.1c0.8,0,1.5,0.4,2.3,0.5c0.1,0,0.1,0,0.2,0   c0.8,0.3,1.7,0.4,2.6,0.6c0.4,0.1,0.9,0.2,1.3,0.2c0,0,0.1,0,0.1,0c1.2,0.3,2.3,0.4,3.5,0.6c0.6,0.1,1.3,0.2,1.9,0.2   c0.7,0,1.5,0.1,2.2,0.2c0.5,0.1,1,0.2,1.5,0.2c3.1,0,6.3,0,9.4,0c0.7,0,1.5-0.1,2.2-0.2c0.3,0,0.5-0.1,0.8-0.1c1.5,0,3-0.4,4.5-0.5   c1-0.1,1.9-0.3,2.9-0.5c0.5-0.1,1-0.3,1.6-0.3c0.2,0,0.3-0.1,0.5-0.1c0.4-0.1,0.7-0.2,1.1-0.3c0.3-0.1,0.6-0.2,0.9-0.2   c0.1,0,0.1-0.1,0.2-0.1c0.6,0,1.2-0.3,1.8-0.5c0.4-0.1,0.8-0.2,1.1-0.3c0,0,0.1,0,0.1,0c0.6,0.1,1.2-0.4,1.8-0.5   c0.2,0,0.4-0.1,0.6-0.2c0.2-0.1,0.4-0.1,0.6-0.2c0.2-0.1,0.4-0.1,0.6-0.2c0.2-0.1,0.4-0.1,0.6-0.2c0.2,0,0.3-0.1,0.5-0.1   c0.9-0.4,1.7-0.7,2.6-1.1c0.4-0.2,0.8-0.3,1.2-0.4c0.6-0.2,1.5,0.2,1.6,0.8c0,0.1,0,0.3-0.1,0.4c-0.2,0.3-0.4,0.6-0.7,0.8   c-1.2,0.8-2.3,1.6-3.5,2.3c-1.2,0.7-2.4,1.3-3.6,1.8c-1.1,0.5-2.3,1-3.4,1.5c-0.5,0.2-1.1,0.4-1.6,0.5c-0.6,0.2-1.2,0.5-1.8,0.6   c-0.7,0.2-1.3,0.6-2.1,0.6c0,0,0,0-0.1,0c-0.7,0.2-1.5,0.4-2.2,0.7c-0.1,0-0.1,0.1-0.2,0.1c-1,0-1.8,0.5-2.8,0.5   c-0.3,0-0.6,0.1-0.9,0.2c-0.4,0.1-0.8,0.2-1.2,0.2c-0.6,0.1-1.3,0.1-1.9,0.2C91.9,95.3,91.4,95.4,90.8,95.4   C90.8,95.5,90.8,95.5,90.8,95.4z"/>
	<path class="st1" d="M153,133.1c0-1.1,0-2.1,0-3.2c0-0.1,0-0.2,0-0.2c0.3-1,0.3-2,0.7-3c0-0.1,0.1-0.1,0.1-0.2c0.3-1.6,1-3,1.9-4.3   c0.5-0.7,1.1-1.4,1.8-2c0.7-0.6,1.4-1.3,2.2-1.7c0.8-0.4,1.5-0.9,2.4-1c0.2,0,0.3-0.1,0.4-0.2c0.2-0.1,0.4-0.1,0.6-0.2   c0.7-0.1,1.3-0.2,2-0.4c0.2,0,0.5-0.1,0.7-0.1c0.6,0,1.2,0,1.8,0c0.8,0,1.6,0,2.4,0.3c0.3,0.1,0.6,0.1,0.8,0.1   c0.3,0.1,0.6,0.2,1,0.3c0.1,0,0.2,0.1,0.3,0.1c0.6,0,1,0.3,1.5,0.5c0.7,0.2,0.9,0.5,0.9,1.2c0,0.9,0,1.7,0,2.6   c0,0.6-0.1,0.7-0.7,0.7c-0.3,0-0.7-0.1-1-0.2c-0.2,0-0.4-0.1-0.6-0.2c-0.5-0.1-1-0.3-1.4-0.4c-0.2,0-0.4-0.1-0.6-0.1   c-1.3,0-2.7,0-4,0c-0.1,0-0.1,0-0.2,0c-0.8,0.2-1.5,0.4-2.3,0.7c-0.3,0.1-0.6,0.3-1,0.5c-1.4,0.7-2.2,1.8-2.8,3.1   c-0.3,0.6-0.5,1.2-0.7,1.8c0,0.1,0,0.1,0,0.2c-0.1,1.5-0.6,3-0.4,4.5c0.1,1,0,2.1,0,3.1c0,0.4,0.1,0.8,0.2,1.2   c0.1,0.3,0.1,0.6,0.1,0.9c0,0.2,0,0.4,0.1,0.5c0.5,1.3,0.9,2.5,1.7,3.6c0.4,0.6,1,1.1,1.6,1.4c0.3,0.1,0.5,0.3,0.8,0.4   c0.4,0.2,0.8,0.4,1.3,0.4c0.1,0,0.2,0,0.2,0.1c0.5,0.4,1.2,0.3,1.8,0.3c1.1,0,2.1,0,3.2,0c0.5,0,0.9-0.1,1.4-0.2   c0.2,0,0.3-0.1,0.5-0.1c0.5,0,0.9-0.1,1.3-0.3c0.3-0.1,0.7-0.1,1.1-0.1c0.4,0,0.7,0.4,0.7,0.8c0.1,0.8,0.1,1.6,0,2.4   c-0.1,0.7-0.6,1.2-1.3,1.4c-0.5,0.1-0.9,0.3-1.4,0.5c-0.5,0.2-1,0.2-1.5,0.3c-1.3,0.4-2.7,0.3-4,0.3c-0.4,0-0.8,0-1.3,0   c-0.4,0-0.9-0.1-1.3-0.2c-0.5-0.1-1-0.1-1.5-0.3c-0.5-0.1-1-0.3-1.5-0.5c-0.7-0.3-1.5-0.7-2.1-1.1c-1.7-1.1-3-2.5-4-4.3   c-0.4-0.8-0.8-1.7-1.1-2.5c-0.3-0.7-0.3-1.5-0.5-2.2c-0.1-0.3-0.1-0.5-0.2-0.8c-0.2-0.5-0.2-1-0.2-1.6C153,135,153,134,153,133.1   C153,133.1,153,133.1,153,133.1z"/>
	<path class="st1" d="M119.8,68.5c0.2,0,0.4,0.1,0.6,0.1c0.8,0,1.5,0.1,2.3,0.3c0.4,0.1,0.8,0.1,1.2,0.1c0.1,0,0.1,0,0.2,0   c0.8,0.2,1.5,0.4,2.3,0.6c0.5,0.2,1,0.4,1.5,0.6c0.4,0.2,0.7,0.5,1,0.8c0.1,0.1,0.1,0.3,0.1,0.5c0,1.3,0,2.6,0,3.9   c0,0.5-0.1,0.6-0.6,0.6c-0.4,0-0.7-0.1-1-0.2c-0.5-0.3-1-0.6-1.7-0.7c-0.1,0-0.2-0.1-0.4-0.2c-0.3-0.1-0.6-0.2-0.9-0.3   c-0.3-0.1-0.5-0.1-0.8-0.2c-0.3-0.1-0.7-0.1-1-0.2c-0.5,0-1-0.1-1.4-0.1c-0.7,0-1.3,0-2,0c-0.6,0-1.3,0.1-1.9,0.1   c-0.2,0-0.3,0-0.5,0c-0.8,0.2-1.5,0.5-2.3,0.7c-0.8,0.2-1.5,0.6-2.2,0.9c-0.8,0.4-1.5-0.1-1.5-1c0-1,0-2,0-3c0-1.2,0.5-2.2,1.2-3.1   c0.8-1.1,1.6-2.3,2.4-3.5c0.6-0.8,1.2-1.7,1.8-2.5c0.4-0.6,0.8-1.1,1.2-1.7c0.8-1.2,1.6-2.4,2.5-3.6c0.1-0.2,0.3-0.3,0.4-0.5   c0.1-0.2,0.2-0.3,0.3-0.6c-0.3,0-0.5-0.1-0.7-0.1c-2.3,0-4.6,0-6.9,0c-0.8,0-1.2-0.4-1.2-1.2c0-0.9,0-1.8,0-2.7   c0-0.2,0.1-0.4,0.1-0.6c0.1-0.4,0.4-0.5,0.8-0.5c2.7,0,5.5,0,8.2,0c2.1,0,4.3,0,6.4,0c0.1,0,0.2,0,0.3,0c0.8,0,1,0.2,1,1   c0,0.9,0,1.7,0,2.6c0,0.5-0.3,0.9-0.6,1.3c-0.6,0.9-1.3,1.8-2,2.8c-0.5,0.7-0.9,1.4-1.4,2.1c-0.7,1-1.4,2-2.1,3   c-0.6,0.9-1.3,1.8-1.9,2.7c-0.2,0.3-0.4,0.6-0.6,0.9c-0.1,0.2-0.2,0.3-0.3,0.5C119.7,68.4,119.7,68.4,119.8,68.5z"/>
	<path class="st1" d="M140.9,133c0-4.8,0-9.5,0-14.3c0-0.3,0-0.5,0-0.8c0-0.3,0.2-0.5,0.5-0.5c0.1,0,0.2-0.1,0.3-0.1   c1.5,0,2.9,0,4.4,0c0.5,0,0.8,0.4,0.9,1c0,0.2,0,0.3,0,0.5c0,4.6,0,9.2,0,13.8c0,4.8,0,9.5,0,14.3c0,0.2,0,0.3,0,0.5   c0,0.9-0.5,1.4-1.4,1.4c-1.2,0.1-2.4,0-3.6,0c-0.2,0-0.3-0.1-0.5-0.1c-0.6-0.2-0.7-0.3-0.7-0.9c0-1.2,0-2.5,0-3.7   C140.9,140.3,140.9,136.6,140.9,133C140.9,133,140.9,133,140.9,133z"/>
	<path class="st1" d="M116.9,80.9c-1-0.1-2.4,0.1-3.8,0.3c-0.6,0.1-1.3,0.1-2,0.1c-0.1,0-0.3-0.1-0.4-0.2c0-0.1,0-0.3,0.1-0.4   c0.4-0.3,0.9-0.7,1.4-0.9c0.7-0.4,1.6-0.7,2.3-1c0.6-0.2,1.2-0.4,1.8-0.4c0.1,0,0.2,0,0.3-0.1c0.6-0.3,1.3-0.3,2-0.3c1,0,2,0,3,0   c0.3,0,0.7,0.1,1,0.1c0.5,0.1,0.9,0.3,1.4,0.3c0.7,0,1.3,0.7,1.4,1.6c0,0.4,0,0.9-0.1,1.3c-0.1,0.6-0.2,1.2-0.3,1.8   c0,0.2-0.1,0.5-0.2,0.7c-0.2,0.3-0.2,0.7-0.3,1.1c-0.1,0.6-0.3,1.1-0.6,1.6c-0.3,0.7-0.7,1.4-1.1,2.1c-0.8,1.5-1.8,2.7-3.1,3.7   c-0.1,0.1-0.2,0.1-0.3,0.2c-0.2,0.1-0.4-0.1-0.4-0.3c0-0.3,0-0.6,0.1-0.8c0.2-0.4,0.3-0.7,0.4-1.2c0.1-0.3,0.2-0.6,0.4-0.9   c0.2-0.5,0.4-1.1,0.6-1.6c0.1-0.3,0.1-0.6,0.2-0.8c0.4-0.7,0.4-1.6,0.7-2.4c0.2-0.7,0.2-1.4,0.1-2.1c-0.1-0.5-0.5-0.8-1-1   C119.8,80.8,118.6,80.9,116.9,80.9z"/>
	<path class="st1" d="M139.7,107.6c0-0.4,0-0.8,0-1.2c0,0,0,0,0-0.1c0.1-0.7,1.4-2.1,2.2-2.3c0.9-0.1,1.9-0.2,2.8,0   c0.6,0.2,1.3,0.5,1.6,1.1c0.1,0.2,0.2,0.3,0.3,0.5c0.3,0.8,0.6,1.7,0.4,2.6c-0.1,0.5-0.2,0.9-0.5,1.3c-0.8,1.4-2.1,1.7-3.5,1.7   c-0.2,0-0.4-0.1-0.6-0.1c-0.5,0-0.9-0.2-1.3-0.5c-0.6-0.4-0.9-1-1.3-1.5c0-0.1-0.1-0.2-0.1-0.3C139.7,108.5,139.7,108,139.7,107.6   C139.7,107.6,139.7,107.6,139.7,107.6z"/>
</g>
</svg>